<svg id="Capa_1" data-name="Capa 1" xmlns="http://www.w3.org/2000/svg" viewBox="0 0 646.5129 641.8626">
  <defs>
    <style>
      .cls-1 {
        fill: #e6e6e6;
      }

      .cls-2 {
        fill: #3f3d56;
      }

      .cls-3 {
        fill: #6c63ff;
      }
    </style>
  </defs>
  <path id="shadow" class="cls-1" d="M713.278,617.9c0,8.4-76.6,9.3-170.9,15.2-94.2,5.9-170.9-6.8-170.9-15.2s77-25.2,170.9-15.2C636.678,612.8,713.278,609.5,713.278,617.9Z" transform="translate(-66.7651)"/>
  <path id="phone" class="cls-2" d="M485.678.5a28.7874,28.7874,0,0,0-5.9-.5h-240.6a51.2294,51.2294,0,0,0-49.9,39.9L67.778,579.2a41.3449,41.3449,0,0,0,31.2,49.4,55.1555,55.1555,0,0,0,7.1,1l247.4,12.2a54.6108,54.6108,0,0,0,56.4-44.8l69-381.3,5.1,1.5,13.2-72.3-5.3-1.3,19.3-106.4A31.7178,31.7178,0,0,0,485.678.5Zm1.8,40.4-99.6,552.8a28.4825,28.4825,0,0,1-29.8,23.3l-246.6-16.2a16.4415,16.4415,0,0,1-3.2-.5,21.8836,21.8836,0,0,1-16.7-26.1l116.7-534.9a35.315,35.315,0,0,1,34.5-27.8h28.1a17.6626,17.6626,0,0,0,17.6,16.3h126.5a10.27,10.27,0,0,0,10-7.7,11.7631,11.7631,0,0,1,11.3-8.7h26.6a21.1923,21.1923,0,0,1,4.4.4A25.2891,25.2891,0,0,1,487.478,40.9Z" transform="translate(-66.7651)"/>
  <path id="box" class="cls-1" d="M407.178,385.5a1.9635,1.9635,0,0,0,2-1.6L463.778,83a1.9208,1.9208,0,0,0-1.9-2.3l-248.1-3h0a2.0185,2.0185,0,0,0-1.9,1.6l-64.3,291.1a1.7976,1.7976,0,0,0,.4,1.6,1.7632,1.7632,0,0,0,1.5.8Z" transform="translate(-66.7651)"/>
  <path id="line1" class="cls-1" d="M141.878,405a.9738.9738,0,0,0-1,.8l-2.3,10a1.0284,1.0284,0,0,0,.7,1.2h.2l131.2,9.3a1.0838,1.0838,0,0,0,1.1-.8l2.2-11.5a1.0123,1.0123,0,0,0-.8-1.2h-.1l-131.2-7.8Z" transform="translate(-66.7651)"/>
  <path id="line2" class="cls-1" d="M301.278,463.3a1.17,1.17,0,0,0,1.1-.8l2.8-11.5a1.0284,1.0284,0,0,0-.7-1.2h-.2L136.678,438a.9934.9934,0,0,0-1,.7l-3,10a.8877.8877,0,0,0,.7,1.2h.2Z" transform="translate(-66.7651)"/>
  <path id="line3" class="cls-1" d="M292.278,500.3a1.17,1.17,0,0,0,1.1-.8l2.8-11.5a1.0284,1.0284,0,0,0-.7-1.2h-.2L127.678,475a.9934.9934,0,0,0-1,.7l-3,10a.8877.8877,0,0,0,.7,1.2h.2Z" transform="translate(-66.7651)"/>
  <path id="button" class="cls-3" d="M221.678,563.5c.5.1.9-.3,1.1-.8l6-24.1a1.0284,1.0284,0,0,0-.7-1.2h-.2l-102.9-8.7a1.17,1.17,0,0,0-1.1.8l-5.1,23.1a1.0123,1.0123,0,0,0,.8,1.2h.1Z" transform="translate(-66.7651)"/>
</svg>
