<?xml version="1.0" encoding="utf-8"?>
<!-- Generator: Adobe Illustrator 26.0.3, SVG Export Plug-In . SVG Version: 6.00 Build 0)  -->
<svg version="1.1" id="phone" xmlns="http://www.w3.org/2000/svg" xmlns:xlink="http://www.w3.org/1999/xlink" x="0px" y="0px"
	 viewBox="0 0 526 952" style="enable-background:new 0 0 526 952;" xml:space="preserve">
<g id="marco">
	<path d="M489.9,0H36.1C16.1,0,0,16.1,0,36.1v879.9C0,935.9,16.1,952,36.1,952h453.8c19.9,0,36.1-16.1,36.1-36.1V36.1
		C526,16.1,509.8,0,489.9,0z M489.1,877.2c0,19.9-16.1,36.1-36.1,36.1H73c-19.9,0-36.1-16.1-36.1-36.1V74.8
		C36.9,54.9,53,38.8,73,38.8h107.9v19c0,3.6,2.9,6.5,6.5,6.5c0,0,0,0,0,0h151.1c3.6,0,6.5-2.9,6.5-6.5v0v-19H453
		c19.9,0,36.1,16.1,36.1,36.1V877.2z"/>
</g>
<path id="reactangulo1" d="M70.6,121.4h384.8c3.2,0,5.7,2.6,5.7,5.7V333c0,3.2-2.6,5.7-5.7,5.7H70.6c-3.2,0-5.7-2.6-5.7-5.7V127.1
	C64.9,123.9,67.4,121.4,70.6,121.4z"/>
<path id="rectangulo3" d="M288.3,379.2h167.1c3.2,0,5.7,2.6,5.7,5.7v205.9c0,3.2-2.6,5.7-5.7,5.7H288.3c-3.2,0-5.7-2.6-5.7-5.7V385
	C282.6,381.8,285.2,379.2,288.3,379.2z"/>
<path id="rectangulo2" d="M70.6,379.2h167.1c3.2,0,5.7,2.6,5.7,5.7v205.9c0,3.2-2.6,5.7-5.7,5.7H70.6c-3.2,0-5.7-2.6-5.7-5.7V385
	C64.9,381.8,67.4,379.2,70.6,379.2z"/>
<path id="rectangulo4" d="M70.6,637.1h384.8c3.2,0,5.7,2.6,5.7,5.7v205.9c0,3.2-2.6,5.7-5.7,5.7H70.6c-3.2,0-5.7-2.6-5.7-5.7V642.8
	C64.9,639.7,67.4,637.1,70.6,637.1z"/>
</svg>
