<?xml version="1.0" encoding="utf-8"?>
<!-- Generator: Adobe Illustrator 26.0.3, SVG Export Plug-In . SVG Version: 6.00 Build 0)  -->
<svg version="1.1" id="Capa_1" xmlns="http://www.w3.org/2000/svg" xmlns:xlink="http://www.w3.org/1999/xlink" x="0px" y="0px"
	 viewBox="0 0 801.6 647.2" style="enable-background:new 0 0 801.6 647.2;" xml:space="preserve">
<style type="text/css">
	.st0{fill:#E6E6E6;}
	.st1{fill:#3F3D56;}
	.st2{fill:#6C63FF;}
</style>
<g id="Group_6" transform="translate(-231.222 -125)">
	<path id="Path_79-257" class="st0" d="M944.5,742.9c0,8.4-76.6,9.3-170.9,15.2c-94.2,5.9-170.9-6.8-170.9-15.2s77-25.2,170.9-15.2
		C867.9,737.8,944.5,734.5,944.5,742.9z"/>
	<path class="st1" d="M716.9,125.5c-1.9-0.4-3.9-0.5-5.9-0.5l0,0H470.4c-23.9,0-44.6,16.6-49.9,39.9L299,704.2
		c-5,22.3,9,44.4,31.2,49.4c2.3,0.5,4.7,0.8,7.1,1l247.4,12.2c27.4,1.3,51.5-17.8,56.4-44.8l69-381.3l5.1,1.5l13.2-72.3l-5.3-1.3
		l19.3-106.4C745.4,145,734,128.6,716.9,125.5z M718.7,165.9l-99.6,552.8c-2.6,14.2-15.4,24.2-29.8,23.3l-246.6-16.2
		c-1.1-0.1-2.2-0.2-3.2-0.5c-11.8-2.6-19.3-14.2-16.7-26.1l116.7-534.9c3.5-16.2,17.9-27.8,34.5-27.8h28.1
		c0.7,9.2,8.4,16.3,17.6,16.3h126.5c4.7,0,8.8-3.1,10-7.7c1.4-5.1,6-8.7,11.3-8.7h26.6c1.5,0,3,0.1,4.4,0.4
		C712.1,139.5,721.1,152.4,718.7,165.9z"/>
	<path id="Path_93-253" class="st0" d="M638.4,510.5c1,0,1.9-0.7,2-1.6L695,208c0.1-0.6,0-1.2-0.4-1.6c-0.4-0.5-0.9-0.7-1.5-0.7
		L445,202.7h0c-0.9,0-1.7,0.7-1.9,1.6l-64.3,291.1c-0.1,0.6,0,1.2,0.4,1.6c0.3,0.5,0.9,0.8,1.5,0.8L638.4,510.5z"/>
	<path id="Path_94-254" class="st0" d="M373.1,530c-0.5,0-0.9,0.3-1,0.8l-2.3,10c-0.1,0.5,0.2,1.1,0.7,1.2c0.1,0,0.1,0,0.2,0
		l131.2,9.3c0.5,0,1-0.3,1.1-0.8l2.2-11.5c0.1-0.5-0.2-1.1-0.8-1.2c0,0-0.1,0-0.1,0L373.1,530L373.1,530z"/>
	<path id="Path_95-255" class="st0" d="M532.5,588.3c0.5,0,0.9-0.3,1.1-0.8l2.8-11.5c0.1-0.5-0.2-1.1-0.7-1.2c-0.1,0-0.1,0-0.2,0
		L367.9,563c-0.5,0-0.9,0.3-1,0.7l-3,10c-0.2,0.5,0.1,1.1,0.7,1.2c0.1,0,0.1,0,0.2,0L532.5,588.3z"/>
	<path id="Path_96-256" class="st0" d="M523.5,625.3c0.5,0,0.9-0.3,1.1-0.8l2.8-11.5c0.1-0.5-0.2-1.1-0.7-1.2c-0.1,0-0.1,0-0.2,0
		L358.9,600c-0.5,0-0.9,0.3-1,0.7l-3,10c-0.2,0.5,0.1,1.1,0.7,1.2c0.1,0,0.1,0,0.2,0L523.5,625.3z"/>
	<path id="Path_97-258" class="st2" d="M452.9,688.5c0.5,0.1,0.9-0.3,1.1-0.8l6-24.1c0.1-0.5-0.2-1.1-0.7-1.2c-0.1,0-0.1,0-0.2,0
		l-102.9-8.7c-0.5,0-0.9,0.3-1.1,0.8l-5.1,23.1c-0.1,0.5,0.2,1.1,0.8,1.2c0,0,0.1,0,0.1,0L452.9,688.5z"/>
</g>
</svg>
